<svg width="26" height="26" viewBox="0 0 26 26" fill="none" xmlns="http://www.w3.org/2000/svg">
<path d="M17.8333 11.8153V9.87422C17.8333 9.45671 17.9485 9.05737 18.176 8.77349C18.3899 8.50654 18.7371 8.29711 19.3151 8.29711H21.0441H21.5441V7.79711V4.03433V3.53489L21.0447 3.53433L18.4403 3.53144H18.4398C16.4946 3.53144 14.9905 4.11292 13.9752 5.17432C12.9638 6.2316 12.5 7.69977 12.5 9.35278V11.8139H10.1111H9.61111V12.3139V15.8889V16.3889H10.1111H12.5V25.5H2.88889C1.57598 25.5 0.5 24.4251 0.5 23.1111V2.88889C0.5 1.57614 1.57614 0.5 2.88889 0.5H23.1111C24.4239 0.5 25.5 1.57614 25.5 2.88889V23.1111C25.5 24.4251 24.424 25.5 23.1111 25.5H17.8333V16.3889H20.2222H20.6204L20.7095 16.0008L21.53 12.4272L21.6705 11.8153H21.0427H17.8333Z" fill="white" stroke="black"/>
</svg>
