<svg width="26" height="26" viewBox="0 0 26 26" fill="none" xmlns="http://www.w3.org/2000/svg">
<path d="M19.8742 9.01005L19.9306 8.74444L19.916 8.72987C19.9537 8.30405 19.8579 7.90634 19.5714 7.62725C19.2169 7.28182 18.7229 7.26502 18.3132 7.41262L18.3131 7.41251L18.3027 7.41652L5.76906 12.25L5.7672 12.2507C5.51933 12.3475 5.30203 12.4664 5.1353 12.6129C4.97123 12.7571 4.81698 12.9645 4.79371 13.233C4.76906 13.5174 4.90087 13.7496 5.0678 13.9065C5.22763 14.0567 5.43587 14.1577 5.65185 14.2258L5.65321 14.2263L8.86127 15.2277L9.08144 15.2964L9.27663 15.1735L13.6485 12.4214L10.5001 15.2659L10.3505 15.401L10.3365 15.6021L10.1059 18.91L10.0686 19.4448H10.6046C10.8535 19.4448 11.062 19.3882 11.2445 19.282C11.4022 19.1903 11.5225 19.0698 11.6013 18.9908C11.6042 18.9878 11.6071 18.9849 11.6099 18.9821L12.8702 17.7683L15.7806 19.9134L15.8047 19.9312L15.8308 19.9459C16.1855 20.1469 16.6206 20.2712 17.0333 20.0845C17.4443 19.8987 17.6468 19.4882 17.7396 19.0687L17.7405 19.0645L19.8742 9.01005ZM0.5 13C0.5 6.09509 6.09429 0.5 13 0.5C19.9049 0.5 25.5 6.09511 25.5 13C25.5 19.9049 19.9057 25.5 13 25.5C6.09511 25.5 0.5 19.9049 0.5 13Z" fill="white" stroke="black"/>
</svg>
